<svg width="96" height="39" viewBox="0 0 96 39" fill="none" xmlns="http://www.w3.org/2000/svg">
<path d="M15.0703 32C15.0312 32.3125 14.901 32.5794 14.6797 32.8008C14.4583 33.0091 14.25 33.237 14.0547 33.4844C13.8203 33.7448 13.625 33.9661 13.4688 34.1484C13.3255 34.3177 13.1953 34.487 13.0781 34.6562C12.9609 34.8255 12.8503 35.0078 12.7461 35.2031C12.6549 35.3984 12.5508 35.6458 12.4336 35.9453C12.4076 35.9974 12.375 36.0365 12.3359 36.0625C12.3099 36.0885 12.2969 36.1471 12.2969 36.2383C12.2708 36.5247 12.1016 36.7396 11.7891 36.8828C11.4896 37.026 11.1185 37.1237 10.6758 37.1758C10.2461 37.2409 9.78385 37.2734 9.28906 37.2734C8.80729 37.2734 8.3776 37.2734 8 37.2734C7.73958 37.2734 7.46615 37.2669 7.17969 37.2539C6.90625 37.2539 6.63932 37.2539 6.37891 37.2539C6.11849 37.2539 5.88411 37.2799 5.67578 37.332C5.48047 37.3841 5.30469 37.4102 5.14844 37.4102C4.8099 37.4102 4.4974 37.3841 4.21094 37.332C3.92448 37.2799 3.65104 37.2539 3.39062 37.2539C3.11719 37.2669 2.86979 37.2995 2.64844 37.3516C2.4401 37.4036 2.23177 37.4557 2.02344 37.5078C1.8151 37.5729 1.60677 37.625 1.39844 37.6641C1.20312 37.7161 0.988281 37.7422 0.753906 37.7422C0.66276 37.7422 0.584635 37.7292 0.519531 37.7031C0.454427 37.6771 0.421875 37.5924 0.421875 37.4492C0.421875 37.293 0.5 37.1888 0.65625 37.1367C0.825521 37.0846 1.00781 37.0391 1.20312 37C1.41146 36.9609 1.59375 36.9089 1.75 36.8438C1.91927 36.7786 2.00391 36.6615 2.00391 36.4922V36.2969C2.00391 36.2318 2.00391 36.1602 2.00391 36.082C2.01693 36.0039 2.04297 35.9128 2.08203 35.8086C2.09505 35.7695 2.14714 35.724 2.23828 35.6719C2.32943 35.6068 2.375 35.5352 2.375 35.457C2.375 35.431 2.36849 35.3984 2.35547 35.3594C2.35547 35.3203 2.35547 35.2878 2.35547 35.2617C2.35547 35.2487 2.36198 35.2357 2.375 35.2227C2.50521 35.1055 2.58984 34.8776 2.62891 34.5391C2.68099 34.1875 2.71354 33.7969 2.72656 33.3672C2.73958 32.9375 2.74609 32.5013 2.74609 32.0586C2.74609 31.6029 2.76562 31.1992 2.80469 30.8477C2.84375 30.5612 2.91536 30.2747 3.01953 29.9883C3.1237 29.7018 3.20182 29.4089 3.25391 29.1094C3.25391 29.0573 3.26042 28.9336 3.27344 28.7383C3.29948 28.543 3.31901 28.3346 3.33203 28.1133C3.34505 27.8919 3.35807 27.6771 3.37109 27.4688C3.38411 27.2474 3.39062 27.0911 3.39062 27C3.39062 26.9219 3.35807 26.8698 3.29297 26.8438C3.24089 26.8047 3.18229 26.7852 3.11719 26.7852C2.97396 26.7852 2.8112 26.8372 2.62891 26.9414C2.45964 27.0456 2.28385 27.1628 2.10156 27.293C1.91927 27.4232 1.73698 27.5404 1.55469 27.6445C1.3724 27.7487 1.20964 27.8008 1.06641 27.8008C0.96224 27.8008 0.903646 27.7682 0.890625 27.7031C0.877604 27.638 0.871094 27.5729 0.871094 27.5078C0.871094 27.3516 0.929688 27.2148 1.04688 27.0977C1.16406 26.9674 1.30729 26.8438 1.47656 26.7266C1.64583 26.6094 1.82161 26.4987 2.00391 26.3945C2.19922 26.2773 2.36849 26.1602 2.51172 26.043C2.57682 25.9779 2.60938 25.9128 2.60938 25.8477C2.60938 25.7826 2.64193 25.75 2.70703 25.75C2.73307 25.75 2.76562 25.7565 2.80469 25.7695C2.84375 25.7695 2.8763 25.7695 2.90234 25.7695C2.96745 25.7695 3.00651 25.724 3.01953 25.6328C3.03255 25.5286 3.0651 25.4635 3.11719 25.4375C3.23438 25.3984 3.33203 25.3659 3.41016 25.3398C3.48828 25.3008 3.55339 25.2292 3.60547 25.125C3.65755 25.0078 3.69661 24.832 3.72266 24.5977C3.7487 24.3633 3.76172 24.0182 3.76172 23.5625C3.76172 23.1198 3.8138 22.7747 3.91797 22.5273C4.03516 22.2669 4.10677 22.026 4.13281 21.8047C4.15885 21.5964 4.17839 21.3685 4.19141 21.1211C4.20443 20.8737 4.21094 20.6263 4.21094 20.3789C4.22396 20.1185 4.23047 19.8776 4.23047 19.6562C4.24349 19.4219 4.25651 19.2135 4.26953 19.0312C4.29557 18.7578 4.33464 18.4909 4.38672 18.2305C4.4388 17.9701 4.46484 17.7487 4.46484 17.5664C4.46484 17.306 4.38021 17.1367 4.21094 17.0586C4.04167 16.9805 3.8724 16.9414 3.70312 16.9414C3.5599 16.9414 3.40365 16.9544 3.23438 16.9805C3.07812 16.9935 2.92839 17 2.78516 17C2.64193 17 2.50521 16.9805 2.375 16.9414C2.25781 16.9023 2.16016 16.8177 2.08203 16.6875C2.14714 16.4792 2.27083 16.3294 2.45312 16.2383C2.64844 16.1471 2.86979 16.0885 3.11719 16.0625C3.3776 16.0234 3.64453 16.0104 3.91797 16.0234C4.20443 16.0234 4.46484 16.0104 4.69922 15.9844C5.16797 15.9453 5.64974 15.9193 6.14453 15.9062C6.63932 15.8932 7.13411 15.8672 7.62891 15.8281C7.92839 15.8021 8.22135 15.75 8.50781 15.6719C8.80729 15.5807 9.11979 15.5352 9.44531 15.5352C9.57552 15.5352 9.69922 15.5417 9.81641 15.5547C9.94661 15.5547 10.0833 15.5547 10.2266 15.5547C10.6302 15.5547 10.9948 15.5026 11.3203 15.3984C11.6589 15.2943 12.043 15.2422 12.4727 15.2422C12.5638 15.2422 12.6224 15.2487 12.6484 15.2617C12.6875 15.2747 12.7135 15.2943 12.7266 15.3203C12.7396 15.3333 12.7526 15.3464 12.7656 15.3594C12.7786 15.3724 12.8047 15.3789 12.8438 15.3789C12.8698 15.3789 12.8828 15.3724 12.8828 15.3594C12.8958 15.3464 12.9089 15.3333 12.9219 15.3203C12.9349 15.2943 12.9544 15.2747 12.9805 15.2617C13.0195 15.2487 13.0911 15.2422 13.1953 15.2422C13.2995 15.2422 13.3971 15.2487 13.4883 15.2617C13.5924 15.2617 13.6966 15.2617 13.8008 15.2617C13.918 15.2617 14.0221 15.2422 14.1133 15.2031C14.2044 15.1641 14.2891 15.125 14.3672 15.0859C14.4583 15.0469 14.5495 15.0078 14.6406 14.9688C14.7448 14.9297 14.8685 14.9102 15.0117 14.9102C15.2721 14.9102 15.4544 14.9753 15.5586 15.1055C15.6758 15.2357 15.7344 15.3984 15.7344 15.5938C15.7344 15.7891 15.6953 16.0104 15.6172 16.2578C15.5391 16.4922 15.4479 16.7331 15.3438 16.9805C15.2396 17.2148 15.1289 17.4427 15.0117 17.6641C14.9076 17.8724 14.8229 18.0417 14.7578 18.1719C14.7057 18.276 14.6602 18.3997 14.6211 18.543C14.5951 18.6732 14.5495 18.7839 14.4844 18.875C14.4193 18.9531 14.3411 19.0312 14.25 19.1094C14.1589 19.1745 14.0938 19.2461 14.0547 19.3242C14.0156 19.3633 13.9831 19.4414 13.957 19.5586C13.944 19.6628 13.9245 19.7734 13.8984 19.8906C13.8724 19.9948 13.8333 20.0924 13.7812 20.1836C13.7292 20.2617 13.6576 20.3008 13.5664 20.3008C13.4492 20.3008 13.3581 20.2617 13.293 20.1836C13.2279 20.0924 13.1953 19.9883 13.1953 19.8711C13.1953 19.6107 13.2409 19.3242 13.332 19.0117C13.4232 18.6862 13.4688 18.3346 13.4688 17.957C13.4688 17.7357 13.4362 17.5208 13.3711 17.3125C13.319 17.0911 13.1953 16.9805 13 16.9805C12.8438 16.9805 12.6419 17.0065 12.3945 17.0586C12.1471 17.1107 11.9714 17.1367 11.8672 17.1367C11.6198 17.1367 11.2747 17.1172 10.832 17.0781C10.4023 17.0391 9.95964 17.0195 9.50391 17.0195C9.08724 17.0195 8.73568 17.0521 8.44922 17.1172C8.16276 17.1693 7.92188 17.306 7.72656 17.5273C7.54427 17.7357 7.39453 18.0547 7.27734 18.4844C7.17318 18.901 7.09505 19.474 7.04297 20.2031V20.4375C7.05599 20.6198 7.01042 20.9062 6.90625 21.2969C6.80208 21.6745 6.75 22.0911 6.75 22.5469V22.8398C6.75 22.9701 6.72396 23.0807 6.67188 23.1719C6.63281 23.25 6.61328 23.2826 6.61328 23.2695C6.61328 23.3346 6.63281 23.4323 6.67188 23.5625C6.72396 23.6797 6.75 23.8229 6.75 23.9922C6.75 24.0182 6.71745 24.0833 6.65234 24.1875C6.60026 24.2786 6.57422 24.3698 6.57422 24.4609C6.57422 24.526 6.67839 24.5846 6.88672 24.6367C7.10807 24.6888 7.36849 24.7344 7.66797 24.7734C7.96745 24.7995 8.27344 24.8255 8.58594 24.8516C8.89844 24.8646 9.15885 24.8711 9.36719 24.8711C9.54948 24.8711 9.73828 24.8451 9.93359 24.793C10.1419 24.7409 10.3828 24.7148 10.6562 24.7148C10.7865 24.7148 10.9102 24.7214 11.0273 24.7344C11.1576 24.7474 11.2747 24.7539 11.3789 24.7539C11.457 24.7539 11.5156 24.7474 11.5547 24.7344C11.9193 24.6432 12.1927 24.5195 12.375 24.3633C12.5703 24.207 12.7461 24.0508 12.9023 23.8945C13.0586 23.7383 13.2344 23.6016 13.4297 23.4844C13.638 23.3542 13.9375 23.276 14.3281 23.25C14.3802 23.3151 14.4062 23.3932 14.4062 23.4844C14.4062 23.6276 14.3411 23.7643 14.2109 23.8945C14.0938 24.0247 13.9896 24.1549 13.8984 24.2852C13.8724 24.3112 13.8464 24.3828 13.8203 24.5C13.8073 24.6172 13.7812 24.6953 13.7422 24.7344C13.6771 24.7995 13.5859 24.8255 13.4688 24.8125C13.3516 24.7865 13.2539 24.806 13.1758 24.8711C13.1107 24.8971 13.0586 24.9427 13.0195 25.0078C12.9935 25.0599 12.9479 25.112 12.8828 25.1641C12.4792 25.3984 12.1667 25.6198 11.9453 25.8281C11.724 26.0365 11.5286 26.2188 11.3594 26.375C11.1901 26.5182 11.0143 26.6354 10.832 26.7266C10.6497 26.8047 10.4023 26.8438 10.0898 26.8438C9.50391 26.8438 8.91797 26.7917 8.33203 26.6875C7.75911 26.5833 7.22526 26.5312 6.73047 26.5312C6.40495 26.5312 6.19661 26.6419 6.10547 26.8633C6.01432 27.0716 5.96875 27.3255 5.96875 27.625C5.96875 27.7292 5.97526 27.8268 5.98828 27.918C6.0013 27.9961 6.00781 28.0677 6.00781 28.1328C6.00781 28.1979 5.99479 28.2891 5.96875 28.4062C5.94271 28.5104 5.91016 28.6276 5.87109 28.7578C5.84505 28.875 5.81901 28.9922 5.79297 29.1094C5.76693 29.2135 5.7474 29.3047 5.73438 29.3828C5.70833 29.6042 5.68229 29.819 5.65625 30.0273C5.63021 30.2357 5.59766 30.4766 5.55859 30.75C5.53255 31.0104 5.49349 31.3099 5.44141 31.6484C5.40234 31.987 5.35677 32.3971 5.30469 32.8789C5.26562 33.2565 5.22005 33.569 5.16797 33.8164C5.11589 34.0638 5.05078 34.2982 4.97266 34.5195C4.89453 34.7279 4.79688 34.9427 4.67969 35.1641C4.57552 35.3724 4.4388 35.6328 4.26953 35.9453C4.30859 35.9453 4.34115 35.9518 4.36719 35.9648C4.40625 35.9648 4.4388 35.9648 4.46484 35.9648C4.63411 35.9648 4.80339 35.9388 4.97266 35.8867C5.15495 35.8346 5.40885 35.763 5.73438 35.6719C5.8125 35.6198 5.89062 35.5677 5.96875 35.5156C6.03385 35.4766 6.09896 35.444 6.16406 35.418C6.22917 35.3789 6.29427 35.3594 6.35938 35.3594C6.39844 35.3594 6.45703 35.3659 6.53516 35.3789C6.61328 35.3919 6.6849 35.3984 6.75 35.3984C6.82812 35.3984 6.88021 35.3854 6.90625 35.3594C6.94531 35.3203 7.00391 35.3008 7.08203 35.3008C7.23828 35.3008 7.54427 35.3268 8 35.3789C8.45573 35.418 8.99609 35.4375 9.62109 35.4375C9.86849 35.4375 10.1029 35.431 10.3242 35.418C10.5586 35.3919 10.7799 35.3268 10.9883 35.2227C11.0143 35.1966 11.0534 35.151 11.1055 35.0859C11.1706 35.0208 11.2357 34.9492 11.3008 34.8711C11.3659 34.793 11.431 34.7214 11.4961 34.6562C11.5742 34.5911 11.6458 34.5391 11.7109 34.5C11.7891 34.4479 11.8867 34.4284 12.0039 34.4414C12.1211 34.4414 12.2188 34.4089 12.2969 34.3438C12.401 34.2656 12.4922 34.1615 12.5703 34.0312C12.6484 33.888 12.7526 33.7513 12.8828 33.6211L13.8984 32.6055C13.9505 32.5534 14.0026 32.4948 14.0547 32.4297C14.1068 32.3516 14.1654 32.2799 14.2305 32.2148C14.3086 32.1497 14.3997 32.0977 14.5039 32.0586C14.6081 32.0195 14.7383 32 14.8945 32H15.0703ZM36.5352 3.23047V3.21094C36.3138 3.67969 36.1315 4.05078 35.9883 4.32422C35.8581 4.59766 35.7344 4.82552 35.6172 5.00781C35.5 5.17708 35.3893 5.32682 35.2852 5.45703C35.181 5.58724 35.0508 5.75 34.8945 5.94531C34.8164 5.97135 34.6797 6.07552 34.4844 6.25781C34.2891 6.4401 34.0807 6.64193 33.8594 6.86328C33.638 7.08464 33.4297 7.28646 33.2344 7.46875C33.0391 7.65104 32.9023 7.75521 32.8242 7.78125C32.7852 7.89844 32.7005 8.01562 32.5703 8.13281C32.4531 8.25 32.3099 8.36068 32.1406 8.46484C31.9714 8.56901 31.7956 8.67969 31.6133 8.79688C31.431 8.90104 31.2617 9.00521 31.1055 9.10938C30.8451 9.29167 30.6237 9.44792 30.4414 9.57812C30.2721 9.69531 30.1029 9.80599 29.9336 9.91016C29.7643 10.0143 29.582 10.112 29.3867 10.2031C29.1914 10.2812 28.944 10.3659 28.6445 10.457C28.0977 10.6263 27.4857 10.7695 26.8086 10.8867C26.1315 11.0039 25.4805 11.0625 24.8555 11.0625C24.4518 11.0625 24.0482 11.043 23.6445 11.0039C23.2409 10.9518 22.9349 10.8737 22.7266 10.7695C22.6484 10.8477 22.6094 10.8997 22.6094 10.9258C22.6094 10.9779 22.6419 11.0234 22.707 11.0625C22.7721 11.0885 22.8242 11.1341 22.8633 11.1992C22.9154 11.2773 22.9609 11.375 23 11.4922C23.0391 11.6094 23.0911 11.707 23.1562 11.7852C23.2865 11.9544 23.4362 12.1042 23.6055 12.2344C23.7878 12.3646 23.931 12.5078 24.0352 12.6641C24.1003 12.7422 24.1458 12.8594 24.1719 13.0156C24.2109 13.1589 24.263 13.2826 24.3281 13.3867C24.3932 13.5039 24.4648 13.6081 24.543 13.6992C24.6341 13.7773 24.7122 13.8685 24.7773 13.9727C25.0247 14.4154 25.2396 14.8255 25.4219 15.2031C25.6042 15.5807 25.8255 15.9974 26.0859 16.4531C26.138 16.5573 26.2096 16.6549 26.3008 16.7461C26.3919 16.8372 26.4635 16.9349 26.5156 17.0391C26.5547 17.1432 26.5742 17.2604 26.5742 17.3906C26.5872 17.5208 26.6198 17.6445 26.6719 17.7617C26.8281 18.2044 26.9974 18.6667 27.1797 19.1484C27.375 19.6172 27.5443 20.0794 27.6875 20.5352C27.7526 20.7826 27.7982 21.0495 27.8242 21.3359C27.8633 21.6224 27.9154 21.8893 27.9805 22.1367C28.0977 22.6055 28.2083 23.0156 28.3125 23.3672C28.4167 23.7188 28.4688 24.1419 28.4688 24.6367C28.4688 24.8581 28.4622 25.0794 28.4492 25.3008C28.4362 25.5221 28.4232 25.737 28.4102 25.9453C28.3841 26.1406 28.319 26.3359 28.2148 26.5312C28.1237 26.7266 28.0846 26.9349 28.0977 27.1562C28.0977 27.2604 28.1042 27.3646 28.1172 27.4688C28.1302 27.5599 28.1367 27.651 28.1367 27.7422C28.1367 28.0156 28.0977 28.2956 28.0195 28.582C27.9414 28.8555 27.8503 29.1419 27.7461 29.4414C27.6419 29.7279 27.5312 30.0208 27.4141 30.3203C27.2969 30.6068 27.1927 30.8932 27.1016 31.1797C27.0495 31.362 26.9648 31.5638 26.8477 31.7852C26.7435 32.0065 26.6328 32.2214 26.5156 32.4297C26.3984 32.638 26.2943 32.8268 26.2031 32.9961C26.125 33.1654 26.0859 33.2891 26.0859 33.3672C26.0859 33.4323 26.0534 33.4844 25.9883 33.5234C25.9362 33.5495 25.8646 33.5755 25.7734 33.6016C25.6953 33.6276 25.6107 33.6602 25.5195 33.6992C25.4414 33.7253 25.3828 33.7643 25.3438 33.8164C25.2135 33.9987 25.1159 34.2266 25.0508 34.5C24.9987 34.7604 24.9076 35.0143 24.7773 35.2617C24.7643 35.2747 24.7188 35.3268 24.6406 35.418C24.5625 35.4961 24.4779 35.5938 24.3867 35.7109C24.2956 35.8151 24.2109 35.9193 24.1328 36.0234C24.0677 36.1276 24.0352 36.2122 24.0352 36.2773C24.0352 36.3424 24.0026 36.3945 23.9375 36.4336C23.8724 36.4596 23.7878 36.4922 23.6836 36.5312C23.5924 36.5703 23.4818 36.6159 23.3516 36.668C23.2344 36.7201 23.1237 36.7917 23.0195 36.8828C22.9674 36.9219 22.9219 36.9805 22.8828 37.0586C22.8438 37.1497 22.7917 37.2344 22.7266 37.3125C22.6745 37.3906 22.6094 37.4622 22.5312 37.5273C22.4531 37.5924 22.3555 37.625 22.2383 37.625C22.1732 37.625 22.0951 37.6185 22.0039 37.6055C21.9258 37.5924 21.8542 37.5859 21.7891 37.5859C21.6849 37.5859 21.6003 37.638 21.5352 37.7422C21.4701 37.8464 21.3854 37.8984 21.2812 37.8984C21.1641 37.8984 21.0794 37.8789 21.0273 37.8398C20.9883 37.8138 20.9492 37.7747 20.9102 37.7227C20.8841 37.6836 20.8581 37.638 20.832 37.5859C20.806 37.5339 20.7539 37.4883 20.6758 37.4492C20.5326 37.3841 20.3633 37.3516 20.168 37.3516C19.9727 37.3516 19.849 37.3385 19.7969 37.3125C19.7188 37.2474 19.6211 37.0911 19.5039 36.8438C19.3997 36.5964 19.263 36.362 19.0938 36.1406C18.9896 36.0234 18.8919 35.9258 18.8008 35.8477C18.7227 35.7695 18.6445 35.6979 18.5664 35.6328C18.4883 35.5547 18.4167 35.4701 18.3516 35.3789C18.2995 35.2747 18.2539 35.138 18.2148 34.9688C18.1888 34.8646 18.1367 34.793 18.0586 34.7539C17.9935 34.7148 17.9479 34.6432 17.9219 34.5391C17.8307 34.2917 17.7721 34.0768 17.7461 33.8945C17.7201 33.7122 17.6745 33.4844 17.6094 33.2109C17.6094 33.1589 17.5898 33.0807 17.5508 32.9766C17.5247 32.8594 17.4922 32.7422 17.4531 32.625C17.4271 32.4948 17.401 32.3711 17.375 32.2539C17.349 32.1237 17.3359 32.0195 17.3359 31.9414C17.3359 31.5768 17.3555 31.2122 17.3945 30.8477C17.4466 30.4831 17.4727 30.1445 17.4727 29.832C17.4727 29.6628 17.4792 29.5 17.4922 29.3438C17.5052 29.1875 17.5443 29.0182 17.6094 28.8359C17.6354 28.7969 17.6875 28.7253 17.7656 28.6211C17.8438 28.5169 17.8958 28.4453 17.9219 28.4062C18.013 28.0807 18.1107 27.7812 18.2148 27.5078C18.319 27.2214 18.4427 26.9284 18.5859 26.6289C18.7292 26.3164 18.8984 25.9714 19.0938 25.5938C19.2891 25.2031 19.5234 24.7344 19.7969 24.1875C19.8229 24.1354 19.8424 24.0638 19.8555 23.9727C19.8815 23.8685 19.9141 23.7969 19.9531 23.7578C19.9661 23.7448 19.9987 23.7253 20.0508 23.6992C20.1159 23.6732 20.181 23.6471 20.2461 23.6211C20.3242 23.582 20.3893 23.5495 20.4414 23.5234C20.5065 23.4844 20.5391 23.4453 20.5391 23.4062C20.5391 23.3802 20.5326 23.3477 20.5195 23.3086C20.5195 23.2695 20.5195 23.237 20.5195 23.2109C20.5195 23.2109 20.5781 23.1458 20.6953 23.0156C20.8125 22.8854 20.9492 22.7357 21.1055 22.5664C21.2617 22.3841 21.418 22.2083 21.5742 22.0391C21.7435 21.8698 21.8802 21.7591 21.9844 21.707C22.0885 21.6549 22.1927 21.6354 22.2969 21.6484C22.401 21.6484 22.4987 21.6224 22.5898 21.5703C22.707 21.4792 22.8112 21.349 22.9023 21.1797C22.9935 21.0104 23.0781 20.8932 23.1562 20.8281C23.2734 20.724 23.4167 20.6133 23.5859 20.4961C23.7552 20.3789 23.9115 20.2617 24.0547 20.1445C24.2109 20.0273 24.3411 19.9232 24.4453 19.832C24.5625 19.7279 24.6211 19.6432 24.6211 19.5781C24.6211 19.4089 24.5625 19.207 24.4453 18.9727C24.3281 18.7383 24.1914 18.5104 24.0352 18.2891C23.8919 18.0677 23.7617 17.8724 23.6445 17.7031C23.5273 17.5208 23.4688 17.3971 23.4688 17.332C23.4557 17.2409 23.4102 17.1432 23.332 17.0391C23.2539 16.9349 23.1693 16.8307 23.0781 16.7266C22.987 16.6094 22.9023 16.5052 22.8242 16.4141C22.7591 16.3229 22.7266 16.2383 22.7266 16.1602C22.7266 16.082 22.6875 15.9909 22.6094 15.8867C22.5312 15.7695 22.4466 15.6523 22.3555 15.5352C22.2643 15.418 22.1797 15.3073 22.1016 15.2031C22.0234 15.099 21.9844 15.0143 21.9844 14.9492C21.9844 14.6888 21.8346 14.3893 21.5352 14.0508C21.2487 13.6992 20.9167 13.2891 20.5391 12.8203C20.526 12.8073 20.5195 12.7878 20.5195 12.7617C20.5195 12.7357 20.5195 12.7031 20.5195 12.6641C20.5326 12.625 20.5391 12.5924 20.5391 12.5664C20.5391 12.5013 20.4609 12.3971 20.3047 12.2539C20.1615 12.1107 19.9987 11.9544 19.8164 11.7852C19.6341 11.6159 19.4648 11.4531 19.3086 11.2969C19.1654 11.1276 19.0938 10.9974 19.0938 10.9062C19.0807 10.7891 18.9701 10.6458 18.7617 10.4766C18.5664 10.3073 18.3516 10.1315 18.1172 9.94922C17.8828 9.75391 17.668 9.5651 17.4727 9.38281C17.2773 9.1875 17.1797 9.01823 17.1797 8.875C17.2188 8.6276 17.2904 8.48438 17.3945 8.44531C17.5117 8.40625 17.6875 8.35417 17.9219 8.28906C18 8.27604 18.1042 8.23698 18.2344 8.17188C18.3646 8.10677 18.5013 8.04167 18.6445 7.97656C18.7878 7.89844 18.9375 7.83333 19.0938 7.78125C19.25 7.72917 19.3932 7.70312 19.5234 7.70312C19.7448 7.70312 19.9857 7.7487 20.2461 7.83984C20.5195 7.91797 20.7604 8.01562 20.9688 8.13281C21.0078 8.15885 21.0599 8.21745 21.125 8.30859C21.1901 8.38672 21.2422 8.43229 21.2812 8.44531C21.4635 8.51042 21.6719 8.53646 21.9062 8.52344C22.1406 8.4974 22.3685 8.51693 22.5898 8.58203C22.681 8.60807 22.7591 8.66667 22.8242 8.75781C22.8893 8.84896 22.974 8.89453 23.0781 8.89453C23.1042 8.89453 23.1302 8.89453 23.1562 8.89453C23.1953 8.88151 23.2279 8.875 23.2539 8.875C23.306 8.875 23.4297 8.89453 23.625 8.93359C23.8203 8.95964 24.0482 8.99219 24.3086 9.03125C24.582 9.07031 24.862 9.10938 25.1484 9.14844C25.4479 9.17448 25.7148 9.1875 25.9492 9.1875C26.2747 9.1875 26.6589 9.15495 27.1016 9.08984C27.5443 9.02474 27.987 8.9401 28.4297 8.83594C28.8724 8.71875 29.2826 8.58203 29.6602 8.42578C30.0508 8.26953 30.3503 8.10026 30.5586 7.91797C30.6628 7.82682 30.7539 7.72266 30.832 7.60547C30.9102 7.48828 31.0078 7.3776 31.125 7.27344C31.3073 7.10417 31.5026 6.96745 31.7109 6.86328C31.9323 6.74609 32.1536 6.58984 32.375 6.39453C32.7135 6.09505 33.0977 5.74349 33.5273 5.33984C33.9701 4.92318 34.3542 4.51953 34.6797 4.12891C34.7578 4.03776 34.862 3.90755 34.9922 3.73828C35.1224 3.55599 35.2526 3.35417 35.3828 3.13281C35.513 2.89844 35.6367 2.65755 35.7539 2.41016C35.8711 2.14974 35.9622 1.90234 36.0273 1.66797C36.0534 1.40755 36.112 1.20573 36.2031 1.0625C36.3073 0.90625 36.4115 0.828125 36.5156 0.828125C36.724 0.828125 36.8281 1.05599 36.8281 1.51172C36.8281 1.51172 36.8151 1.60286 36.7891 1.78516C36.763 1.95443 36.7305 2.14974 36.6914 2.37109C36.6654 2.57943 36.6328 2.77474 36.5938 2.95703C36.5677 3.13932 36.5482 3.23047 36.5352 3.23047ZM26.2227 25.0664C26.2227 24.9492 26.2096 24.8646 26.1836 24.8125C26.1706 24.7474 26.1445 24.6888 26.1055 24.6367C26.0794 24.5716 26.0469 24.4935 26.0078 24.4023C25.9818 24.3112 25.9557 24.1875 25.9297 24.0312C25.8776 23.7708 25.8581 23.5104 25.8711 23.25C25.8841 22.9766 25.8581 22.7031 25.793 22.4297C25.7018 22.0781 25.5977 21.7721 25.4805 21.5117C25.3633 21.2383 25.2917 21.1016 25.2656 21.1016C25.0833 21.1016 24.9401 21.1471 24.8359 21.2383C24.7318 21.3294 24.6602 21.388 24.6211 21.4141C24.5039 21.4792 24.3607 21.5378 24.1914 21.5898C24.0352 21.6419 23.8854 21.7266 23.7422 21.8438C23.5859 21.987 23.3841 22.1953 23.1367 22.4688C22.8893 22.7292 22.6484 23.0026 22.4141 23.2891C22.1797 23.5625 21.9779 23.8099 21.8086 24.0312C21.6393 24.2396 21.5482 24.3503 21.5352 24.3633C21.3398 24.8711 21.2031 25.2357 21.125 25.457C21.0599 25.6784 21.0143 25.8477 20.9883 25.9648C20.9622 26.082 20.9427 26.1927 20.9297 26.2969C20.9297 26.388 20.8971 26.5573 20.832 26.8047C20.806 26.9089 20.7474 27.013 20.6562 27.1172C20.5651 27.2083 20.5195 27.3255 20.5195 27.4688C20.5195 27.5599 20.526 27.6445 20.5391 27.7227C20.5521 27.8008 20.5586 27.8789 20.5586 27.957C20.5586 28.0872 20.5326 28.2109 20.4805 28.3281C20.4414 28.4323 20.3958 28.5365 20.3438 28.6406C20.2917 28.7448 20.2396 28.849 20.1875 28.9531C20.1484 29.0573 20.1289 29.168 20.1289 29.2852C20.1289 29.4674 20.1419 29.7018 20.168 29.9883C20.207 30.2747 20.2461 30.5742 20.2852 30.8867C20.3242 31.1862 20.3633 31.4727 20.4023 31.7461C20.4544 32.0195 20.5 32.2214 20.5391 32.3516C20.5391 32.3906 20.5326 32.4297 20.5195 32.4688C20.5195 32.4948 20.5195 32.5273 20.5195 32.5664C20.5195 32.6185 20.5586 32.6966 20.6367 32.8008C20.7279 32.8919 20.793 32.9831 20.832 33.0742C20.9492 33.4128 21.0924 33.7253 21.2617 34.0117C21.431 34.2852 21.6003 34.526 21.7695 34.7344C21.9518 34.9427 22.1276 35.1055 22.2969 35.2227C22.4661 35.3398 22.6094 35.3984 22.7266 35.3984C22.8177 35.3984 22.9414 35.3138 23.0977 35.1445C23.2669 34.9622 23.4427 34.7474 23.625 34.5C23.8203 34.2396 24.0026 33.9727 24.1719 33.6992C24.3542 33.4128 24.5039 33.1589 24.6211 32.9375C24.8034 32.612 24.9857 32.2409 25.168 31.8242C25.3503 31.4076 25.4609 30.9974 25.5 30.5938C25.5 30.5156 25.5195 30.457 25.5586 30.418C25.5977 30.3789 25.6302 30.3464 25.6562 30.3203C25.7214 30.0599 25.7539 29.832 25.7539 29.6367C25.7539 29.4284 25.7669 29.2135 25.793 28.9922C25.806 28.7057 25.8385 28.3932 25.8906 28.0547C25.9427 27.7031 25.9883 27.3516 26.0273 27C26.0794 26.6484 26.125 26.3099 26.1641 25.9844C26.2031 25.6458 26.2227 25.3398 26.2227 25.0664ZM45.3438 32.1367C45.487 32.2799 45.5586 32.4102 45.5586 32.5273C45.5586 32.6055 45.526 32.6836 45.4609 32.7617C45.4089 32.8268 45.3438 32.8919 45.2656 32.957C45.1875 33.0091 45.1094 33.0677 45.0312 33.1328C44.9661 33.1849 44.9206 33.2435 44.8945 33.3086C44.7773 33.5951 44.5755 33.9141 44.2891 34.2656C44.0156 34.6042 43.7357 34.9622 43.4492 35.3398C43.293 35.5482 43.1107 35.8086 42.9023 36.1211C42.707 36.4206 42.4987 36.7005 42.2773 36.9609C42.2513 36.987 42.1992 37.0065 42.1211 37.0195C42.043 37.0456 41.9974 37.0716 41.9844 37.0977C41.8802 37.3581 41.7435 37.6055 41.5742 37.8398C41.418 38.0742 41.1836 38.1914 40.8711 38.1914C40.4935 38.1914 40.207 38.1003 40.0117 37.918C39.8164 37.7487 39.6797 37.5469 39.6016 37.3125C39.5234 37.0781 39.4779 36.8372 39.4648 36.5898C39.4648 36.3424 39.4648 36.1471 39.4648 36.0039C39.4648 35.5352 39.5039 35.0208 39.582 34.4609C39.6602 33.901 39.7448 33.3477 39.8359 32.8008C39.9401 32.2539 40.0312 31.7331 40.1094 31.2383C40.1875 30.7305 40.2266 30.3008 40.2266 29.9492H40.1484C40.0443 29.9492 39.9076 30.0664 39.7383 30.3008C39.569 30.5221 39.3737 30.8021 39.1523 31.1406C38.944 31.4792 38.7161 31.8438 38.4688 32.2344C38.2344 32.625 38 32.9831 37.7656 33.3086C37.6354 33.4779 37.4922 33.6471 37.3359 33.8164C37.1927 33.9857 37.0495 34.1354 36.9062 34.2656C36.776 34.3958 36.6654 34.5 36.5742 34.5781C36.4831 34.6562 36.4375 34.6888 36.4375 34.6758C36.4375 34.7018 36.4375 34.7344 36.4375 34.7734C36.4505 34.8125 36.457 34.8451 36.457 34.8711C36.457 34.9622 36.3984 35.0664 36.2812 35.1836C36.1771 35.2878 36.0599 35.3919 35.9297 35.4961C35.7995 35.5872 35.6758 35.6654 35.5586 35.7305C35.4544 35.7956 35.4023 35.8346 35.4023 35.8477C35.4023 35.8737 35.4023 35.9062 35.4023 35.9453C35.4154 35.9844 35.4219 36.0169 35.4219 36.043C35.4219 36.0951 35.3763 36.1276 35.2852 36.1406C35.207 36.1536 35.1549 36.1797 35.1289 36.2188C35.0898 36.3229 35.0508 36.4466 35.0117 36.5898C34.9857 36.7201 34.8815 36.7917 34.6992 36.8047C34.6081 36.8047 34.5104 36.8633 34.4062 36.9805C34.3021 37.0977 34.1979 37.2214 34.0938 37.3516C33.9896 37.4948 33.8854 37.625 33.7812 37.7422C33.6901 37.8724 33.6055 37.9505 33.5273 37.9766C33.2669 38.0547 33.0651 38.0938 32.9219 38.0938C32.7396 38.0938 32.5638 38.0221 32.3945 37.8789C32.2383 37.7357 32.1016 37.5729 31.9844 37.3906C31.8672 37.2214 31.7695 37.0521 31.6914 36.8828C31.6263 36.7135 31.5938 36.5964 31.5938 36.5312C31.5938 36.1797 31.6068 35.7956 31.6328 35.3789C31.6589 34.9622 31.6914 34.5521 31.7305 34.1484C31.7826 33.7318 31.8477 33.3477 31.9258 32.9961C32.0039 32.6445 32.1016 32.3581 32.2188 32.1367C32.2839 31.9935 32.3164 31.7917 32.3164 31.5312C32.3164 31.4401 32.3099 31.349 32.2969 31.2578C32.2969 31.1536 32.2969 31.0495 32.2969 30.9453C32.2969 30.7891 32.3099 30.6393 32.3359 30.4961C32.375 30.3398 32.4141 30.1641 32.4531 29.9688C32.5052 29.7734 32.5573 29.5456 32.6094 29.2852C32.6745 29.0247 32.7331 28.7122 32.7852 28.3477C32.8112 28.1003 32.8307 27.8529 32.8438 27.6055C32.8698 27.3581 32.9023 27.1172 32.9414 26.8828C33.0065 26.5182 33.0781 26.1276 33.1562 25.7109C33.2474 25.2943 33.293 24.8581 33.293 24.4023C33.293 24.3503 33.293 24.2786 33.293 24.1875C33.293 24.0964 33.2865 24.0117 33.2734 23.9336C33.2604 23.8424 33.2409 23.7643 33.2148 23.6992C33.2018 23.6341 33.1758 23.6016 33.1367 23.6016C33.0326 23.6016 32.9284 23.6602 32.8242 23.7773C32.7201 23.8945 32.6159 24.0312 32.5117 24.1875C32.4076 24.3438 32.3034 24.5 32.1992 24.6562C32.1081 24.8125 32.0169 24.9297 31.9258 25.0078C31.7956 25.125 31.6263 25.2227 31.418 25.3008C31.2227 25.3789 31.0534 25.4701 30.9102 25.5742C30.8581 25.6133 30.819 25.6719 30.793 25.75C30.7669 25.8151 30.7344 25.8802 30.6953 25.9453C30.6562 26.0104 30.5977 26.069 30.5195 26.1211C30.4544 26.1732 30.3568 26.1992 30.2266 26.1992C30.1745 26.1992 30.1224 26.1927 30.0703 26.1797C30.0312 26.1536 30.0117 26.0885 30.0117 25.9844C30.0117 25.737 30.1029 25.5286 30.2852 25.3594C30.4805 25.1771 30.6367 25.0078 30.7539 24.8516C30.806 24.7865 30.8255 24.7148 30.8125 24.6367C30.8125 24.5456 30.8451 24.4674 30.9102 24.4023C30.9753 24.3372 31.0794 24.2591 31.2227 24.168C31.3659 24.0768 31.5026 23.9661 31.6328 23.8359C31.6849 23.7708 31.7109 23.6992 31.7109 23.6211C31.7109 23.5299 31.7305 23.4518 31.7695 23.3867C31.8477 23.3086 31.9779 23.224 32.1602 23.1328C32.3555 23.0417 32.5182 22.9375 32.6484 22.8203C32.6875 22.7812 32.7396 22.7161 32.8047 22.625C32.8698 22.5208 32.9414 22.4232 33.0195 22.332C33.0977 22.2279 33.1758 22.1367 33.2539 22.0586C33.3451 21.9805 33.4362 21.9414 33.5273 21.9414C33.5924 21.9414 33.6641 21.8893 33.7422 21.7852C33.8333 21.668 33.9245 21.5378 34.0156 21.3945C34.1068 21.2383 34.1979 21.0885 34.2891 20.9453C34.3802 20.8021 34.4648 20.6979 34.543 20.6328C34.6341 20.5547 34.7578 20.4961 34.9141 20.457C35.0703 20.4049 35.2396 20.3789 35.4219 20.3789C35.6302 20.3789 35.8125 20.418 35.9688 20.4961C36.125 20.5612 36.2031 20.6979 36.2031 20.9062C36.2031 20.9974 36.1901 21.1146 36.1641 21.2578C36.151 21.401 36.1315 21.5443 36.1055 21.6875C36.0794 21.8307 36.0534 21.974 36.0273 22.1172C36.0143 22.2474 36.0078 22.3451 36.0078 22.4102C36.0078 22.5273 36.0208 22.6185 36.0469 22.6836C36.0859 22.7487 36.1055 22.8268 36.1055 22.918C36.1055 22.9701 36.0664 23.0807 35.9883 23.25C35.9102 23.4193 35.8255 23.6276 35.7344 23.875C35.6562 24.1094 35.5781 24.3763 35.5 24.6758C35.4219 24.9622 35.3828 25.2487 35.3828 25.5352C35.3828 25.7305 35.3893 25.9128 35.4023 26.082C35.4154 26.2513 35.4219 26.4206 35.4219 26.5898C35.4219 26.9023 35.3763 27.1953 35.2852 27.4688C35.2721 27.4948 35.2396 27.5208 35.1875 27.5469C35.1484 27.5599 35.1289 27.599 35.1289 27.6641C35.1289 27.7161 35.1354 27.7943 35.1484 27.8984C35.1615 27.9896 35.168 28.0938 35.168 28.2109C35.168 28.3542 35.1484 28.4518 35.1094 28.5039C35.0833 28.543 35.0443 28.5755 34.9922 28.6016C34.9531 28.6146 34.9141 28.6341 34.875 28.6602C34.849 28.6862 34.8359 28.7513 34.8359 28.8555C34.8359 28.9727 34.8555 29.0898 34.8945 29.207C34.9466 29.3112 34.9727 29.4674 34.9727 29.6758C34.9727 29.8581 34.9401 30.0729 34.875 30.3203C34.8099 30.5677 34.7383 30.8542 34.6602 31.1797C34.582 31.5052 34.5104 31.8698 34.4453 32.2734C34.3802 32.6641 34.3477 33.0938 34.3477 33.5625C34.3477 33.9661 34.3607 34.2982 34.3867 34.5586C34.4258 34.806 34.4974 34.9297 34.6016 34.9297C34.7969 34.9297 35.0247 34.819 35.2852 34.5977C35.5586 34.3633 35.8451 34.0638 36.1445 33.6992C36.444 33.3216 36.7435 32.9115 37.043 32.4688C37.3555 32.013 37.6419 31.5638 37.9023 31.1211C38.1758 30.6654 38.4102 30.2487 38.6055 29.8711C38.8138 29.4805 38.9701 29.168 39.0742 28.9336C39.3737 28.2174 39.6536 27.5143 39.9141 26.8242C40.1875 26.1341 40.4935 25.3789 40.832 24.5586C40.8581 24.4544 40.8711 24.3503 40.8711 24.2461C40.8711 24.1289 40.8711 24.0117 40.8711 23.8945V23.4453C40.8711 23.1589 40.9102 22.944 40.9883 22.8008C41.0794 22.6576 41.1901 22.5534 41.3203 22.4883C41.4635 22.4102 41.6198 22.3516 41.7891 22.3125C41.9583 22.2604 42.1211 22.1823 42.2773 22.0781C42.4596 21.9609 42.6354 21.8242 42.8047 21.668C42.974 21.5117 43.1367 21.362 43.293 21.2188C43.4622 21.0755 43.625 20.9518 43.7812 20.8477C43.9505 20.7305 44.1328 20.6589 44.3281 20.6328C44.3281 20.7109 44.3086 20.7826 44.2695 20.8477C44.2305 20.8997 44.1849 20.9648 44.1328 21.043C44.0807 21.1081 44.0286 21.1862 43.9766 21.2773C43.9245 21.3685 43.8919 21.4922 43.8789 21.6484C43.8659 21.7656 43.8333 21.9349 43.7812 22.1562C43.7422 22.3646 43.6771 22.5859 43.5859 22.8203C43.5729 22.8464 43.5469 22.8594 43.5078 22.8594C43.4688 22.8464 43.4492 22.8789 43.4492 22.957C43.4362 23.1133 43.4167 23.3802 43.3906 23.7578C43.3646 24.1354 43.332 24.5 43.293 24.8516C43.2669 25.099 43.1888 25.3594 43.0586 25.6328C42.9284 25.8932 42.8568 26.1732 42.8438 26.4727C42.8438 26.5378 42.8503 26.5768 42.8633 26.5898C42.8893 26.6029 42.9023 26.6354 42.9023 26.6875C42.9023 26.8438 42.8438 27 42.7266 27.1562C42.6224 27.2995 42.5703 27.4232 42.5703 27.5273C42.5703 27.6966 42.5898 27.8789 42.6289 28.0742C42.681 28.2695 42.707 28.4583 42.707 28.6406C42.707 28.862 42.668 29.0768 42.5898 29.2852C42.5117 29.4805 42.4531 29.7018 42.4141 29.9492C42.362 30.1966 42.3359 30.444 42.3359 30.6914C42.3359 30.9388 42.3164 31.1797 42.2773 31.4141C42.1992 31.8958 42.1081 32.3646 42.0039 32.8203C41.8997 33.263 41.8477 33.6341 41.8477 33.9336C41.8477 34.0898 41.8672 34.2396 41.9062 34.3828C41.9453 34.513 41.9844 34.6302 42.0234 34.7344C42.0755 34.8385 42.1146 34.9232 42.1406 34.9883C42.1797 35.0534 42.1992 35.0859 42.1992 35.0859C42.2904 35.0859 42.4076 35.0534 42.5508 34.9883C42.694 34.9102 42.8307 34.8255 42.9609 34.7344C43.0911 34.6432 43.2018 34.5521 43.293 34.4609C43.3971 34.3698 43.4492 34.3047 43.4492 34.2656C43.4492 34.2396 43.4427 34.2135 43.4297 34.1875C43.4297 34.1484 43.4297 34.1159 43.4297 34.0898C43.4297 34.0117 43.4818 33.9661 43.5859 33.9531C43.6901 33.9401 43.7422 33.8945 43.7422 33.8164C43.7422 33.7904 43.7357 33.7578 43.7227 33.7188C43.7227 33.6797 43.7227 33.6471 43.7227 33.6211C43.7227 33.569 43.7552 33.4974 43.8203 33.4062C43.8984 33.3151 43.9766 33.224 44.0547 33.1328C44.1458 33.0286 44.2305 32.944 44.3086 32.8789C44.3867 32.8008 44.4388 32.7487 44.4648 32.7227C44.4909 32.6966 44.5104 32.651 44.5234 32.5859C44.5495 32.5208 44.582 32.4557 44.6211 32.3906C44.6732 32.3125 44.7448 32.2474 44.8359 32.1953C44.9271 32.1432 45.0508 32.1172 45.207 32.1172C45.2331 32.1172 45.2526 32.1237 45.2656 32.1367C45.2917 32.1367 45.3177 32.1367 45.3438 32.1367ZM57.2773 21.8047V21.8633C57.2773 21.9674 57.2057 22.1497 57.0625 22.4102C56.9323 22.6576 56.776 22.9115 56.5938 23.1719C56.4115 23.4193 56.2227 23.6406 56.0273 23.8359C55.8451 24.0312 55.6953 24.1289 55.5781 24.1289C55.3828 24.1289 55.2266 24.0768 55.1094 23.9727C54.9922 23.8555 54.8945 23.7188 54.8164 23.5625C54.7383 23.4062 54.6536 23.25 54.5625 23.0938C54.4844 22.9245 54.3737 22.7812 54.2305 22.6641C54.2044 22.651 54.1393 22.612 54.0352 22.5469C53.944 22.4818 53.8398 22.4167 53.7227 22.3516C53.6185 22.2865 53.5143 22.2279 53.4102 22.1758C53.306 22.1237 53.2344 22.0977 53.1953 22.0977C52.9609 22.0977 52.7656 22.1432 52.6094 22.2344C52.4661 22.3255 52.3424 22.4492 52.2383 22.6055C52.1471 22.7487 52.0625 22.918 51.9844 23.1133C51.9062 23.2956 51.8216 23.4844 51.7305 23.6797C51.6654 23.8229 51.5547 23.9987 51.3984 24.207C51.2422 24.4023 51.1576 24.5977 51.1445 24.793C51.1445 24.819 51.1445 24.8516 51.1445 24.8906C51.1576 24.9297 51.1641 24.9622 51.1641 24.9883C51.1641 25.0013 51.1185 25.0599 51.0273 25.1641C50.9492 25.2682 50.8971 25.3594 50.8711 25.4375C50.806 25.5938 50.7539 25.7891 50.7148 26.0234C50.6888 26.2578 50.6562 26.5052 50.6172 26.7656C50.5911 27.026 50.5586 27.2865 50.5195 27.5469C50.4935 27.7943 50.4609 28.0156 50.4219 28.2109C50.4089 28.263 50.3763 28.3737 50.3242 28.543C50.2721 28.6992 50.2201 28.8815 50.168 29.0898C50.1159 29.2982 50.0638 29.5195 50.0117 29.7539C49.9727 29.9883 49.9531 30.2031 49.9531 30.3984C49.9531 30.5938 49.9596 30.7826 49.9727 30.9648C49.9857 31.1341 49.9922 31.2904 49.9922 31.4336C49.9922 31.694 49.9661 31.9805 49.9141 32.293C49.875 32.5924 49.8555 32.9049 49.8555 33.2305C49.8555 33.4258 49.875 33.6276 49.9141 33.8359C49.9661 34.0312 49.9922 34.2266 49.9922 34.4219C49.9922 34.487 49.9857 34.5521 49.9727 34.6172C49.9596 34.6693 49.9531 34.7279 49.9531 34.793C49.9531 34.832 49.9661 34.8776 49.9922 34.9297C49.9922 34.9557 50.0247 35.0013 50.0898 35.0664C50.1549 35.1185 50.2331 35.1771 50.3242 35.2422C50.4154 35.3073 50.513 35.3659 50.6172 35.418C50.7214 35.4701 50.819 35.4961 50.9102 35.4961C51.0404 35.4961 51.2096 35.431 51.418 35.3008C51.6263 35.1576 51.8411 34.9948 52.0625 34.8125C52.2839 34.6172 52.4922 34.4219 52.6875 34.2266C52.8958 34.0312 53.0651 33.875 53.1953 33.7578C53.3646 33.6016 53.5273 33.4518 53.6836 33.3086C53.8529 33.1523 54.0352 32.9635 54.2305 32.7422C54.2435 32.7161 54.2891 32.6901 54.3672 32.6641C54.4453 32.638 54.4909 32.612 54.5039 32.5859C54.582 32.4297 54.6341 32.332 54.6602 32.293C54.6992 32.2539 54.7904 32.1562 54.9336 32C55.0117 31.9219 55.0964 31.8112 55.1875 31.668C55.2917 31.5247 55.4023 31.3815 55.5195 31.2383C55.6497 31.082 55.7799 30.9518 55.9102 30.8477C56.0534 30.7435 56.1966 30.6914 56.3398 30.6914C56.3919 30.6914 56.4635 30.7109 56.5547 30.75C56.6589 30.7891 56.7109 30.8802 56.7109 31.0234C56.7109 31.1667 56.6719 31.2904 56.5938 31.3945C56.5156 31.4987 56.418 31.5964 56.3008 31.6875C56.1966 31.7656 56.0859 31.8438 55.9688 31.9219C55.8516 32 55.7539 32.0781 55.6758 32.1562C55.5716 32.2604 55.4935 32.3841 55.4414 32.5273C55.3893 32.6576 55.3242 32.7747 55.2461 32.8789C55.0117 33.1784 54.7253 33.4714 54.3867 33.7578C54.0482 34.0443 53.7487 34.3307 53.4883 34.6172C53.2409 34.8776 53.013 35.1445 52.8047 35.418C52.6094 35.6784 52.3555 35.9062 52.043 36.1016C51.9909 36.1276 51.9128 36.1471 51.8086 36.1602C51.7174 36.1732 51.6458 36.1992 51.5938 36.2383C51.4766 36.3294 51.3724 36.4596 51.2812 36.6289C51.2031 36.7852 51.112 36.8958 51.0078 36.9609C50.9036 37.0391 50.7214 37.1107 50.4609 37.1758C50.2135 37.2539 50.0117 37.332 49.8555 37.4102C49.8164 37.4232 49.7839 37.4688 49.7578 37.5469C49.7448 37.625 49.7253 37.6706 49.6992 37.6836C49.6732 37.6966 49.6146 37.7096 49.5234 37.7227C49.4323 37.7487 49.3281 37.7682 49.2109 37.7812C49.1068 37.7943 49.0026 37.8073 48.8984 37.8203C48.7943 37.8333 48.7227 37.8398 48.6836 37.8398C48.6445 37.8398 48.5729 37.8138 48.4688 37.7617C48.3776 37.7227 48.2799 37.6771 48.1758 37.625C48.0846 37.5729 48 37.5208 47.9219 37.4688C47.8438 37.4297 47.8047 37.4102 47.8047 37.4102C47.7005 37.293 47.6419 37.1628 47.6289 37.0195C47.6289 36.8763 47.5898 36.7135 47.5117 36.5312C47.3294 36.1406 47.1797 35.7826 47.0625 35.457C46.9583 35.1315 46.9062 34.7474 46.9062 34.3047C46.9062 34.2266 46.9062 34.1224 46.9062 33.9922C46.9193 33.862 46.9323 33.7253 46.9453 33.582C46.9714 33.4388 47.0039 33.3021 47.043 33.1719C47.0951 33.0417 47.1536 32.944 47.2188 32.8789C47.2188 32.7617 47.1927 32.6445 47.1406 32.5273C47.0885 32.3971 47.0625 32.2734 47.0625 32.1562C47.0755 32.0391 47.1016 31.9154 47.1406 31.7852C47.1797 31.6549 47.2057 31.5312 47.2188 31.4141C47.2318 31.1927 47.2513 30.9518 47.2773 30.6914C47.3034 30.418 47.3359 30.1445 47.375 29.8711C47.4141 29.5977 47.4661 29.3307 47.5312 29.0703C47.6094 28.8099 47.7005 28.5755 47.8047 28.3672C47.8307 28.3021 47.8438 28.2044 47.8438 28.0742V27.8789C47.8438 27.6966 47.8893 27.4948 47.9805 27.2734C48.0846 27.0521 48.2018 26.8307 48.332 26.6094C48.4753 26.388 48.6185 26.1797 48.7617 25.9844C48.9049 25.776 49.0221 25.5938 49.1133 25.4375C49.1393 25.3854 49.1589 25.3203 49.1719 25.2422C49.1849 25.151 49.2109 25.0729 49.25 25.0078C49.276 24.9688 49.3216 24.9427 49.3867 24.9297C49.4648 24.9167 49.5169 24.8906 49.543 24.8516C49.7643 24.5781 49.9922 24.3047 50.2266 24.0312C50.4609 23.7448 50.6758 23.4388 50.8711 23.1133C50.9232 23.0221 50.9688 22.918 51.0078 22.8008C51.0469 22.6706 51.0924 22.5469 51.1445 22.4297C51.1966 22.3125 51.2617 22.2083 51.3398 22.1172C51.431 22.026 51.5612 21.9674 51.7305 21.9414C51.7435 21.9414 51.7826 21.9089 51.8477 21.8438C51.9258 21.7656 52.0104 21.681 52.1016 21.5898C52.2057 21.4857 52.3034 21.388 52.3945 21.2969C52.4857 21.1927 52.5573 21.1146 52.6094 21.0625C52.7656 20.9193 52.9284 20.7565 53.0977 20.5742C53.2799 20.3919 53.4688 20.2161 53.6641 20.0469C53.8594 19.8776 54.0482 19.7409 54.2305 19.6367C54.4258 19.5195 54.6081 19.4609 54.7773 19.4609C55.1029 19.4609 55.3633 19.5651 55.5586 19.7734C55.7669 19.9818 56.0013 20.2161 56.2617 20.4766C56.3138 20.5417 56.3984 20.6263 56.5156 20.7305C56.6328 20.8346 56.7435 20.9518 56.8477 21.082C56.9648 21.2122 57.0625 21.3424 57.1406 21.4727C57.2318 21.6029 57.2773 21.7135 57.2773 21.8047ZM71.1641 31.8633C71.2552 31.9544 71.3008 32.0586 71.3008 32.1758C71.3008 32.3711 71.2422 32.5469 71.125 32.7031C71.0078 32.8464 70.8581 32.9896 70.6758 33.1328C70.5065 33.263 70.3177 33.3997 70.1094 33.543C69.9141 33.6862 69.7318 33.8555 69.5625 34.0508C69.3411 34.3112 69.0807 34.6107 68.7812 34.9492C68.4948 35.2747 68.2669 35.6068 68.0977 35.9453C68.0716 36.0104 67.987 36.1341 67.8438 36.3164C67.7135 36.4987 67.5508 36.694 67.3555 36.9023C67.1732 37.1107 66.9648 37.293 66.7305 37.4492C66.5091 37.6055 66.2943 37.6836 66.0859 37.6836C65.9427 37.6836 65.7995 37.6576 65.6562 37.6055C65.526 37.5664 65.4023 37.5078 65.2852 37.4297C65.168 37.3646 65.0703 37.2865 64.9922 37.1953C64.9271 37.1172 64.8945 37.0391 64.8945 36.9609C64.8945 36.8438 64.9401 36.7266 65.0312 36.6094C65.1354 36.4922 65.1875 36.3099 65.1875 36.0625C65.1875 35.9974 65.1745 35.9518 65.1484 35.9258C65.1354 35.8997 65.1159 35.8672 65.0898 35.8281C65.0768 35.7891 65.0638 35.737 65.0508 35.6719C65.0378 35.6068 65.0312 35.5026 65.0312 35.3594C65.0312 35.2161 65.0508 35.0664 65.0898 34.9102C65.1419 34.7409 65.194 34.5716 65.2461 34.4023C65.3112 34.2201 65.3633 34.0443 65.4023 33.875C65.4544 33.6927 65.4805 33.5169 65.4805 33.3477C65.4805 33.3086 65.474 33.2695 65.4609 33.2305C65.4609 33.1784 65.4609 33.1328 65.4609 33.0938C65.4609 33.0156 65.4805 32.8984 65.5195 32.7422C65.5586 32.5859 65.6042 32.4167 65.6562 32.2344C65.7083 32.0521 65.7539 31.8568 65.793 31.6484C65.832 31.4271 65.8516 31.2188 65.8516 31.0234C65.8516 30.776 65.8255 30.5677 65.7734 30.3984C65.6302 30.4505 65.5065 30.5286 65.4023 30.6328C65.2982 30.724 65.2005 30.8346 65.1094 30.9648C65.0312 31.082 64.9466 31.2122 64.8555 31.3555C64.7773 31.4857 64.6927 31.6094 64.6016 31.7266C64.5495 31.7917 64.4583 31.8763 64.3281 31.9805C64.1979 32.0846 64.0612 32.1953 63.918 32.3125C63.7878 32.4297 63.6706 32.5469 63.5664 32.6641C63.4622 32.7682 63.4102 32.8529 63.4102 32.918C63.4102 32.944 63.4167 32.9766 63.4297 33.0156C63.4427 33.0547 63.4492 33.0872 63.4492 33.1133C63.4492 33.1523 63.4167 33.2109 63.3516 33.2891C63.2865 33.3672 63.2148 33.4518 63.1367 33.543C63.0716 33.6211 63.0065 33.6992 62.9414 33.7773C62.8763 33.8424 62.8438 33.888 62.8438 33.9141C62.8307 34.0573 62.7201 34.194 62.5117 34.3242C62.3034 34.4414 62.1211 34.5911 61.9648 34.7734C61.8477 34.9036 61.75 35.0404 61.6719 35.1836C61.5938 35.3268 61.5221 35.457 61.457 35.5742C61.3919 35.6914 61.3268 35.7891 61.2617 35.8672C61.1966 35.9323 61.1185 35.9648 61.0273 35.9648C61.0013 35.9648 60.9557 35.9583 60.8906 35.9453C60.8385 35.9323 60.793 35.9258 60.7539 35.9258C60.6628 35.9258 60.6042 35.9844 60.5781 36.1016C60.5651 36.2188 60.5456 36.3099 60.5195 36.375C60.4154 36.5443 60.2917 36.6745 60.1484 36.7656C60.0182 36.8438 59.849 36.9609 59.6406 37.1172C59.5495 37.1823 59.4844 37.2539 59.4453 37.332C59.4193 37.4232 59.3802 37.5013 59.3281 37.5664C59.276 37.6315 59.1914 37.6836 59.0742 37.7227C58.9701 37.7747 58.8008 37.8008 58.5664 37.8008C58.4362 37.8008 58.3125 37.7878 58.1953 37.7617C58.0781 37.7357 58.0195 37.6966 58.0195 37.6445C58.0195 37.6185 58.026 37.5859 58.0391 37.5469C58.0521 37.5078 58.0586 37.4753 58.0586 37.4492C58.0586 37.4362 58.0326 37.4102 57.9805 37.3711C57.9284 37.332 57.8633 37.2734 57.7852 37.1953C57.7201 37.1302 57.6615 37.0391 57.6094 36.9219C57.5573 36.7917 57.5312 36.6354 57.5312 36.4531C57.5312 36.2448 57.5508 36.0299 57.5898 35.8086C57.6419 35.5742 57.694 35.3464 57.7461 35.125C57.8112 34.9036 57.8698 34.6953 57.9219 34.5C57.974 34.2917 58.013 34.0964 58.0391 33.9141C58.0911 33.4844 58.1172 33.0482 58.1172 32.6055C58.1172 32.1628 58.1888 31.7656 58.332 31.4141C58.3971 31.2839 58.4688 31.1081 58.5469 30.8867C58.625 30.6654 58.6966 30.4049 58.7617 30.1055C58.7747 30.0273 58.7943 29.9167 58.8203 29.7734C58.8464 29.6172 58.8789 29.4479 58.918 29.2656C58.957 29.0833 58.9961 28.901 59.0352 28.7188C59.0872 28.5234 59.1458 28.3542 59.2109 28.2109C59.237 28.1719 59.2826 28.1263 59.3477 28.0742C59.4258 28.0091 59.4779 27.957 59.5039 27.918C59.5299 27.8398 59.543 27.7552 59.543 27.6641C59.556 27.5599 59.5885 27.4557 59.6406 27.3516C59.6667 27.2995 59.7188 27.2474 59.7969 27.1953C59.875 27.1302 59.9206 27.0781 59.9336 27.0391C59.9987 26.9219 60.0443 26.7786 60.0703 26.6094C60.0964 26.4401 60.1484 26.2969 60.2266 26.1797C60.2786 26.1016 60.3698 26.0365 60.5 25.9844C60.6302 25.9193 60.7344 25.8346 60.8125 25.7305C60.8776 25.6393 60.9232 25.5417 60.9492 25.4375C60.9883 25.3333 61.0339 25.2422 61.0859 25.1641C61.2292 25.0078 61.3464 24.8711 61.4375 24.7539C61.5417 24.6237 61.6328 24.5065 61.7109 24.4023C61.8021 24.2982 61.8867 24.2005 61.9648 24.1094C62.043 24.0182 62.1406 23.9271 62.2578 23.8359C62.3359 23.7839 62.4271 23.6862 62.5312 23.543C62.6484 23.3997 62.7526 23.3021 62.8438 23.25C62.9479 23.2109 63.0391 23.1784 63.1172 23.1523C63.2083 23.1263 63.3125 23.0677 63.4297 22.9766C63.4557 22.9505 63.4818 22.8984 63.5078 22.8203C63.5339 22.7292 63.5599 22.6771 63.5859 22.6641C63.6771 22.625 63.7617 22.5924 63.8398 22.5664C63.931 22.5404 64.0352 22.4753 64.1523 22.3711C64.2956 22.2409 64.4062 22.1107 64.4844 21.9805C64.5625 21.8503 64.6536 21.7396 64.7578 21.6484C64.862 21.5703 64.9792 21.5182 65.1094 21.4922C65.2396 21.4661 65.3568 21.4206 65.4609 21.3555C65.6562 21.2513 65.8516 21.1146 66.0469 20.9453C66.2552 20.763 66.4701 20.5872 66.6914 20.418C66.9128 20.2357 67.1406 20.0859 67.375 19.9688C67.6224 19.8385 67.8763 19.7734 68.1367 19.7734C68.306 19.7734 68.4753 19.7604 68.6445 19.7344C68.8268 19.6953 68.9961 19.6758 69.1523 19.6758C69.2956 19.6758 69.4258 19.7018 69.543 19.7539C69.6602 19.806 69.7188 19.9167 69.7188 20.0859C69.7188 20.5807 69.6602 21.1341 69.543 21.7461C69.4258 22.3581 69.2956 23.0156 69.1523 23.7188C69.0221 24.4219 68.8984 25.1641 68.7812 25.9453C68.6771 26.7266 68.625 27.5339 68.625 28.3672C68.625 28.3932 68.6315 28.4323 68.6445 28.4844C68.6706 28.5365 68.6836 28.6146 68.6836 28.7188C68.6836 28.7969 68.6641 28.8945 68.625 29.0117C68.599 29.1159 68.5664 29.2266 68.5273 29.3438C68.4883 29.4479 68.4492 29.5521 68.4102 29.6562C68.3841 29.7604 68.3711 29.8516 68.3711 29.9297C68.3711 30.0599 68.3711 30.1901 68.3711 30.3203C68.3841 30.4505 68.3906 30.5677 68.3906 30.6719C68.3906 30.8932 68.3646 31.1406 68.3125 31.4141C68.2604 31.6875 68.1953 31.974 68.1172 32.2734C68.0521 32.5599 67.9935 32.8464 67.9414 33.1328C67.8893 33.4193 67.8633 33.6862 67.8633 33.9336C67.8633 34.0638 67.8698 34.1875 67.8828 34.3047C67.8958 34.4089 67.9219 34.513 67.9609 34.6172C68.1302 34.5391 68.2669 34.4414 68.3711 34.3242C68.4883 34.207 68.5924 34.0768 68.6836 33.9336C68.7878 33.7773 68.8919 33.6146 68.9961 33.4453C69.1003 33.263 69.237 33.0742 69.4062 32.8789C69.4714 32.8008 69.5625 32.6966 69.6797 32.5664C69.7969 32.4362 69.9206 32.3125 70.0508 32.1953C70.181 32.0781 70.3177 31.974 70.4609 31.8828C70.6042 31.7917 70.7409 31.7461 70.8711 31.7461C70.9622 31.7461 71.0599 31.7852 71.1641 31.8633ZM66.6328 21.8047C66.5938 21.8047 66.5547 21.8047 66.5156 21.8047C66.4766 21.7917 66.444 21.7852 66.418 21.7852C66.2227 21.7852 66.0729 21.8438 65.9688 21.9609C65.8776 22.0651 65.7995 22.1172 65.7344 22.1172C65.7083 22.1172 65.6758 22.1172 65.6367 22.1172C65.5977 22.1042 65.5586 22.0977 65.5195 22.0977C65.4544 22.0977 65.4219 22.1367 65.4219 22.2148C65.4219 22.2799 65.3893 22.332 65.3242 22.3711C65.2721 22.4362 65.2005 22.4688 65.1094 22.4688C65.0182 22.4557 64.9466 22.4753 64.8945 22.5273C64.8294 22.5924 64.7643 22.6966 64.6992 22.8398C64.6471 22.9701 64.5625 23.1068 64.4453 23.25C64.3411 23.3672 64.2109 23.4714 64.0547 23.5625C63.9115 23.6536 63.8008 23.7448 63.7227 23.8359C63.6966 23.888 63.6706 23.9661 63.6445 24.0703C63.6315 24.1615 63.612 24.2331 63.5859 24.2852C63.4818 24.4674 63.3516 24.6888 63.1953 24.9492C63.0521 25.1966 62.8958 25.457 62.7266 25.7305C62.5573 26.0039 62.388 26.2708 62.2188 26.5312C62.0625 26.7786 61.9323 27 61.8281 27.1953C61.724 27.3776 61.6523 27.5924 61.6133 27.8398C61.5742 28.0872 61.5417 28.3477 61.5156 28.6211C61.5026 28.8815 61.4896 29.1354 61.4766 29.3828C61.4635 29.6172 61.4375 29.8125 61.3984 29.9688C61.151 30.8281 60.9167 31.694 60.6953 32.5664C60.487 33.4258 60.3828 34.2591 60.3828 35.0664C60.6562 35.0273 60.8646 34.9232 61.0078 34.7539C61.1641 34.5716 61.2878 34.3698 61.3789 34.1484C61.4701 33.9271 61.5547 33.7122 61.6328 33.5039C61.7109 33.2956 61.8216 33.1393 61.9648 33.0352C62.069 32.9701 62.1732 32.8789 62.2773 32.7617C62.3945 32.6445 62.4922 32.5339 62.5703 32.4297C62.6094 32.3776 62.6289 32.3125 62.6289 32.2344C62.6289 32.1432 62.6549 32.0651 62.707 32C62.7852 31.9089 62.8763 31.8112 62.9805 31.707C63.0977 31.6029 63.2148 31.4987 63.332 31.3945C63.4492 31.2904 63.5534 31.1927 63.6445 31.1016C63.7487 30.9974 63.8268 30.9128 63.8789 30.8477C63.931 30.7826 63.957 30.6849 63.957 30.5547C63.9701 30.4115 63.9896 30.3073 64.0156 30.2422C64.1458 29.9948 64.2891 29.7734 64.4453 29.5781C64.6016 29.3698 64.7513 29.1549 64.8945 28.9336C65.1289 28.569 65.3242 28.2109 65.4805 27.8594C65.6497 27.5078 65.793 27.1497 65.9102 26.7852C66.0273 26.4206 66.1315 26.0495 66.2227 25.6719C66.3138 25.2812 66.4049 24.8646 66.4961 24.4219C66.5482 24.1615 66.6068 23.8815 66.6719 23.582C66.75 23.2826 66.7891 22.9766 66.7891 22.6641C66.7891 22.3385 66.737 22.0521 66.6328 21.8047ZM78.8594 21.0625C78.8333 21.1667 78.7682 21.362 78.6641 21.6484C78.5599 21.9219 78.4818 22.2083 78.4297 22.5078C78.3516 22.9505 78.319 23.3867 78.332 23.8164C78.3451 24.2461 78.332 24.6432 78.293 25.0078C78.2279 25.5026 78.1302 25.9844 78 26.4531C77.8828 26.9219 77.7852 27.4036 77.707 27.8984C77.6289 28.3542 77.5638 28.6927 77.5117 28.9141C77.4727 29.1354 77.4336 29.3307 77.3945 29.5C77.3685 29.6693 77.349 29.8516 77.3359 30.0469C77.3229 30.2422 77.3164 30.5286 77.3164 30.9062C77.3164 31.0495 77.3164 31.1797 77.3164 31.2969C77.3294 31.401 77.3359 31.5052 77.3359 31.6094C77.3359 31.7917 77.2969 31.9674 77.2188 32.1367C77.1406 32.293 77.1016 32.4622 77.1016 32.6445C77.1016 32.7878 77.1146 32.9375 77.1406 33.0938C77.1667 33.25 77.1797 33.4062 77.1797 33.5625C77.1797 33.7057 77.1602 33.8164 77.1211 33.8945C77.0951 33.9727 77.056 34.0312 77.0039 34.0703C76.9648 34.1094 76.9193 34.1419 76.8672 34.168C76.8281 34.181 76.7891 34.2135 76.75 34.2656C76.6979 34.3568 76.6393 34.4935 76.5742 34.6758C76.5221 34.8451 76.4831 34.9492 76.457 34.9883C76.3919 35.0664 76.3008 35.1185 76.1836 35.1445C76.0664 35.1706 75.9622 35.2161 75.8711 35.2812C75.6758 35.4375 75.4544 35.6589 75.207 35.9453C74.9727 36.2188 74.7383 36.4987 74.5039 36.7852C74.2826 37.0586 74.0742 37.293 73.8789 37.4883C73.6836 37.6966 73.5339 37.8008 73.4297 37.8008C73.3646 37.8008 73.3125 37.7878 73.2734 37.7617C73.2474 37.7487 73.2344 37.6966 73.2344 37.6055C73.2344 37.4883 73.2669 37.3841 73.332 37.293C73.3971 37.2018 73.4688 37.1042 73.5469 37C73.638 36.9089 73.7227 36.8112 73.8008 36.707C73.8919 36.5898 73.957 36.4596 73.9961 36.3164V36.2969C73.9961 36.0365 74.0417 35.8281 74.1328 35.6719C74.224 35.5156 74.2695 35.4049 74.2695 35.3398C74.2695 35.2617 74.2435 35.2096 74.1914 35.1836C74.1393 35.1576 74.1133 35.112 74.1133 35.0469C74.1133 34.9948 74.1263 34.9232 74.1523 34.832C74.1914 34.7279 74.2305 34.6172 74.2695 34.5C74.3086 34.3828 74.3411 34.2656 74.3672 34.1484C74.4062 34.0312 74.4258 33.9401 74.4258 33.875C74.4258 33.7188 74.4062 33.5885 74.3672 33.4844C74.3411 33.3672 74.3281 33.2435 74.3281 33.1133C74.3281 32.931 74.3867 32.7617 74.5039 32.6055C74.6341 32.4492 74.6992 32.319 74.6992 32.2148C74.6862 32.1628 74.6797 32.1107 74.6797 32.0586C74.6797 32.0065 74.6797 31.9479 74.6797 31.8828C74.6797 31.5573 74.7122 31.2383 74.7773 30.9258C74.8555 30.6133 74.9401 30.3203 75.0312 30.0469C75.1224 29.7734 75.2005 29.526 75.2656 29.3047C75.3438 29.0833 75.3828 28.9076 75.3828 28.7773C75.3828 28.7122 75.3763 28.6667 75.3633 28.6406V28.5625C75.3633 28.4193 75.3372 28.276 75.2852 28.1328C75.2461 27.9896 75.2266 27.8464 75.2266 27.7031C75.2266 27.5729 75.2656 27.4297 75.3438 27.2734C75.4349 27.1042 75.4935 26.9284 75.5195 26.7461C75.5716 26.4466 75.5977 26.0951 75.5977 25.6914C75.5977 25.2747 75.6172 24.8971 75.6562 24.5586C75.6823 24.2852 75.7409 24.0312 75.832 23.7969C75.9232 23.5625 75.9688 23.4258 75.9688 23.3867C75.9036 23.2695 75.8255 23.1654 75.7344 23.0742C75.6432 22.9701 75.5651 22.918 75.5 22.918C75.3958 22.918 75.2982 22.957 75.207 23.0352C75.1159 23.1133 75.0247 23.2109 74.9336 23.3281C74.8555 23.4323 74.7773 23.5495 74.6992 23.6797C74.6211 23.7969 74.5495 23.8945 74.4844 23.9727C74.3802 24.1029 74.2174 24.2721 73.9961 24.4805C73.7878 24.6888 73.612 24.8646 73.4688 25.0078C73.3776 25.112 73.306 25.2422 73.2539 25.3984C73.2018 25.5417 73.0846 25.6133 72.9023 25.6133C72.8503 25.6133 72.8047 25.6068 72.7656 25.5938C72.7396 25.5677 72.7266 25.5091 72.7266 25.418C72.7266 25.3008 72.7526 25.1901 72.8047 25.0859C72.8698 24.9688 72.9414 24.8581 73.0195 24.7539C73.0977 24.6367 73.1758 24.5326 73.2539 24.4414C73.3451 24.3372 73.4167 24.2331 73.4688 24.1289C73.5729 23.9206 73.7422 23.6667 73.9766 23.3672C74.2109 23.0547 74.4844 22.7227 74.7969 22.3711C75.1224 22.0195 75.4805 21.6615 75.8711 21.2969C76.2747 20.9193 76.6914 20.5482 77.1211 20.1836C77.2513 20.0794 77.3424 19.9948 77.3945 19.9297C77.4596 19.8646 77.5117 19.819 77.5508 19.793C77.5898 19.7539 77.6289 19.7344 77.668 19.7344C77.707 19.7214 77.7721 19.7148 77.8633 19.7148C78.293 19.7148 78.5794 19.7865 78.7227 19.9297C78.8659 20.0599 78.9375 20.2552 78.9375 20.5156C78.9375 20.5938 78.931 20.6784 78.918 20.7695C78.9049 20.8607 78.8854 20.9583 78.8594 21.0625ZM86.3008 21.3359C86.2878 21.4141 86.2487 21.4531 86.1836 21.4531H86.125C86.0469 21.4531 86.0078 21.4922 86.0078 21.5703C86.0078 21.6094 86.0078 21.6484 86.0078 21.6875C86.0208 21.7135 86.0273 21.7396 86.0273 21.7656C86.0273 21.8307 85.9688 21.9609 85.8516 22.1562C85.7344 22.3516 85.5651 22.5859 85.3438 22.8594C85.1354 23.1198 84.875 23.3932 84.5625 23.6797C84.263 23.9531 83.9245 24.194 83.5469 24.4023C83.3385 24.5195 83.1042 24.6562 82.8438 24.8125C82.5833 24.9557 82.2904 25.0273 81.9648 25.0273C81.9388 25.0273 81.9062 25.0273 81.8672 25.0273C81.8411 25.0143 81.8151 25.0078 81.7891 25.0078C81.776 25.0078 81.7174 25.0013 81.6133 24.9883C81.5091 24.9753 81.3919 24.9622 81.2617 24.9492C81.1445 24.9362 81.0208 24.9232 80.8906 24.9102C80.7604 24.8971 80.6693 24.8776 80.6172 24.8516C80.5 24.8125 80.3698 24.6823 80.2266 24.4609C80.0833 24.2266 79.9206 24.0182 79.7383 23.8359C79.6471 23.7448 79.5495 23.6667 79.4453 23.6016C79.3411 23.5234 79.2435 23.4453 79.1523 23.3672C79.0742 23.2891 79.0026 23.2109 78.9375 23.1328C78.8854 23.0417 78.8594 22.944 78.8594 22.8398C78.8984 22.8398 79.0026 22.7357 79.1719 22.5273C79.3542 22.306 79.5495 22.0716 79.7578 21.8242C79.9792 21.5638 80.1875 21.3229 80.3828 21.1016C80.5781 20.8802 80.7083 20.7695 80.7734 20.7695C80.8255 20.7695 80.8711 20.7305 80.9102 20.6523C80.9622 20.5742 81.0078 20.4896 81.0469 20.3984C81.0859 20.2943 81.1315 20.1966 81.1836 20.1055C81.2357 20.0013 81.2943 19.9297 81.3594 19.8906C81.5286 19.9036 81.6458 19.9883 81.7109 20.1445C81.776 20.3008 81.8216 20.4896 81.8477 20.7109C81.8737 20.9323 81.8932 21.1797 81.9062 21.4531C81.9323 21.7135 81.9844 21.9544 82.0625 22.1758C82.1406 22.3971 82.2708 22.5859 82.4531 22.7422C82.6354 22.8854 82.9023 22.957 83.2539 22.957C83.332 22.957 83.4036 22.9505 83.4688 22.9375C83.5469 22.9245 83.625 22.8984 83.7031 22.8594C83.7812 22.8203 83.8724 22.7617 83.9766 22.6836C84.0938 22.6055 84.237 22.5013 84.4062 22.3711C84.5625 22.2539 84.6992 22.1172 84.8164 21.9609C84.9466 21.7917 85.0703 21.6289 85.1875 21.4727C85.3177 21.3034 85.4609 21.1536 85.6172 21.0234C85.7734 20.8932 85.9557 20.8086 86.1641 20.7695C86.1901 20.8216 86.2227 20.8867 86.2617 20.9648C86.3008 21.0299 86.3203 21.1081 86.3203 21.1992C86.3203 21.2253 86.3138 21.2513 86.3008 21.2773C86.3008 21.2904 86.3008 21.3099 86.3008 21.3359ZM95.3633 23.1719C95.3372 23.6667 95.2656 24.1159 95.1484 24.5195C95.0443 24.9232 94.9076 25.2943 94.7383 25.6328C94.582 25.9714 94.4062 26.2839 94.2109 26.5703C94.0156 26.8568 93.8138 27.1367 93.6055 27.4102C93.4753 27.5794 93.3711 27.7292 93.293 27.8594C93.2148 27.9766 93.1367 28.0807 93.0586 28.1719C92.9805 28.263 92.8958 28.3411 92.8047 28.4062C92.7135 28.4714 92.5898 28.5234 92.4336 28.5625C92.3294 28.5885 92.2057 28.6211 92.0625 28.6602C91.9323 28.6862 91.8151 28.7513 91.7109 28.8555C91.6849 28.8815 91.6589 28.9336 91.6328 29.0117C91.6068 29.0768 91.5807 29.1224 91.5547 29.1484C91.4505 29.2266 91.3268 29.2786 91.1836 29.3047C91.0534 29.3177 90.9362 29.3633 90.832 29.4414C90.7279 29.5326 90.6562 29.6107 90.6172 29.6758C90.5781 29.7409 90.5065 29.806 90.4023 29.8711C90.2982 29.9362 90.1745 29.9883 90.0312 30.0273C89.901 30.0534 89.7773 30.099 89.6602 30.1641C89.569 30.2292 89.4974 30.3073 89.4453 30.3984C89.4062 30.4766 89.3346 30.5482 89.2305 30.6133C89.0221 30.7565 88.8464 30.8672 88.7031 30.9453C88.5599 31.0104 88.4427 31.1081 88.3516 31.2383C88.2734 31.3685 88.2148 31.5573 88.1758 31.8047C88.1367 32.0521 88.1172 32.4297 88.1172 32.9375C88.1172 33.237 88.1237 33.5234 88.1367 33.7969C88.1628 34.0703 88.1888 34.2721 88.2148 34.4023C88.2279 34.4414 88.2669 34.5326 88.332 34.6758C88.4102 34.806 88.5013 34.9492 88.6055 35.1055C88.7227 35.2617 88.8529 35.4049 88.9961 35.5352C89.1393 35.6523 89.2891 35.7109 89.4453 35.7109C89.6797 35.7109 89.888 35.6263 90.0703 35.457C90.2526 35.2747 90.4544 35.1185 90.6758 34.9883C90.8451 34.8841 91.0664 34.7474 91.3398 34.5781C91.6133 34.3958 91.8346 34.194 92.0039 33.9727C92.056 33.8945 92.1211 33.7904 92.1992 33.6602C92.2773 33.5169 92.362 33.3802 92.4531 33.25C92.5573 33.1068 92.668 32.9896 92.7852 32.8984C92.9154 32.7943 93.0586 32.7422 93.2148 32.7422C93.2799 32.7422 93.3646 32.7617 93.4688 32.8008C93.4557 33.0221 93.3841 33.224 93.2539 33.4062C93.1367 33.5885 93 33.7578 92.8438 33.9141C92.7005 34.0573 92.5703 34.1875 92.4531 34.3047C92.3359 34.4219 92.2773 34.5195 92.2773 34.5977C92.2773 34.6237 92.2773 34.6628 92.2773 34.7148C92.2904 34.7539 92.2969 34.7865 92.2969 34.8125C92.2969 34.8776 92.2188 34.9297 92.0625 34.9688C91.9193 34.9948 91.8021 35.0469 91.7109 35.125C91.6458 35.1901 91.5938 35.2682 91.5547 35.3594C91.5286 35.4375 91.4831 35.5026 91.418 35.5547C91.2747 35.6719 91.125 35.776 90.9688 35.8672C90.8125 35.9583 90.6693 36.056 90.5391 36.1602C90.3958 36.2904 90.2461 36.4401 90.0898 36.6094C89.9466 36.7786 89.8034 36.9349 89.6602 37.0781C89.5169 37.2344 89.3737 37.3646 89.2305 37.4688C89.1003 37.5729 88.9766 37.625 88.8594 37.625C88.7943 37.625 88.7227 37.612 88.6445 37.5859C88.5794 37.5729 88.5143 37.5664 88.4492 37.5664C88.3841 37.5664 88.332 37.5924 88.293 37.6445C88.2539 37.6966 88.2018 37.7227 88.1367 37.7227C88.0195 37.7227 87.8828 37.6641 87.7266 37.5469C87.5703 37.4427 87.4401 37.3646 87.3359 37.3125C87.1536 37.2474 86.9388 37.2018 86.6914 37.1758C86.444 37.1628 86.2682 37.1172 86.1641 37.0391C86.0729 36.9609 86.0013 36.8177 85.9492 36.6094C85.9102 36.401 85.8385 36.1992 85.7344 36.0039C85.6302 35.8216 85.513 35.6719 85.3828 35.5547C85.2526 35.4375 85.1745 35.3464 85.1484 35.2812C85.1224 35.2031 85.1029 35.099 85.0898 34.9688C85.0898 34.8255 85.0898 34.6823 85.0898 34.5391C85.0898 34.3828 85.0833 34.2331 85.0703 34.0898C85.0573 33.9336 85.0312 33.7969 84.9922 33.6797C84.9792 33.6406 84.9531 33.6081 84.9141 33.582C84.875 33.543 84.8555 33.4714 84.8555 33.3672C84.8555 33.3802 84.875 33.3542 84.9141 33.2891C84.9661 33.2109 84.9922 33.1458 84.9922 33.0938C85.0573 32.0651 85.1484 31.0885 85.2656 30.1641C85.3958 29.2266 85.5586 28.3737 85.7539 27.6055C85.9492 26.8242 86.1836 26.1471 86.457 25.5742C86.7435 24.9883 87.082 24.526 87.4727 24.1875C87.5378 24.1354 87.6094 24.1159 87.6875 24.1289C87.7786 24.1289 87.8568 24.1029 87.9219 24.0508C87.9479 24.0247 87.9674 23.9792 87.9805 23.9141C88.0065 23.8359 88.0326 23.7839 88.0586 23.7578C88.1237 23.7057 88.1953 23.6797 88.2734 23.6797C88.3646 23.6797 88.4362 23.6536 88.4883 23.6016C88.5273 23.5755 88.5794 23.5234 88.6445 23.4453C88.7096 23.3672 88.7747 23.2826 88.8398 23.1914C88.9049 23.1003 88.9701 23.0156 89.0352 22.9375C89.1003 22.8464 89.1654 22.7812 89.2305 22.7422C89.3867 22.638 89.5755 22.5664 89.7969 22.5273C90.0182 22.4883 90.2201 22.4102 90.4023 22.293C90.4544 22.2669 90.513 22.2148 90.5781 22.1367C90.6432 22.0586 90.7083 21.9805 90.7734 21.9023C90.8516 21.8112 90.9232 21.7331 90.9883 21.668C91.0534 21.6029 91.1185 21.5703 91.1836 21.5703C91.2096 21.5703 91.2422 21.5768 91.2812 21.5898C91.3203 21.5898 91.3529 21.5898 91.3789 21.5898C91.4049 21.5898 91.5026 21.5117 91.6719 21.3555C91.8542 21.1992 92.0169 21.0755 92.1602 20.9844C92.1992 20.9583 92.2188 20.9128 92.2188 20.8477C92.2318 20.7695 92.2578 20.7174 92.2969 20.6914C92.362 20.6393 92.4661 20.6003 92.6094 20.5742C92.7526 20.5352 92.8893 20.4766 93.0195 20.3984C93.1237 20.3333 93.2018 20.2682 93.2539 20.2031C93.306 20.138 93.4232 20.1055 93.6055 20.1055C94.0742 20.1445 94.4323 20.2292 94.6797 20.3594C94.9271 20.4896 95.0964 20.6784 95.1875 20.9258C95.2917 21.1602 95.3438 21.4661 95.3438 21.8438C95.3568 22.2083 95.3633 22.651 95.3633 23.1719ZM92.5898 23.1719C92.5768 23.1458 92.5247 23.1003 92.4336 23.0352C92.3555 22.957 92.3099 22.9049 92.2969 22.8789C92.2578 22.8138 92.2383 22.7487 92.2383 22.6836C92.2383 22.6055 92.2318 22.5339 92.2188 22.4688C92.2057 22.4036 92.1797 22.3516 92.1406 22.3125C92.1146 22.2734 92.056 22.2539 91.9648 22.2539C91.8867 22.2539 91.7695 22.2995 91.6133 22.3906C91.4701 22.4688 91.3138 22.5664 91.1445 22.6836C90.9883 22.8008 90.8385 22.918 90.6953 23.0352C90.5521 23.1523 90.4544 23.2435 90.4023 23.3086C90.3372 23.3867 90.2461 23.5299 90.1289 23.7383C90.0247 23.9336 89.9141 24.1354 89.7969 24.3438C89.6927 24.5521 89.5951 24.7344 89.5039 24.8906C89.4128 25.0469 89.3607 25.125 89.3477 25.125C89.3477 25.151 89.3477 25.1836 89.3477 25.2227C89.3607 25.2617 89.3672 25.2943 89.3672 25.3203C89.3672 25.3984 89.3151 25.4701 89.2109 25.5352C89.1068 25.5872 89.0547 25.6979 89.0547 25.8672C89.0547 25.9323 89.0612 26.0104 89.0742 26.1016C89.0872 26.1797 89.0938 26.2513 89.0938 26.3164C89.0938 26.4206 89.0482 26.5247 88.957 26.6289C88.8789 26.7331 88.8268 26.8438 88.8008 26.9609C88.6836 27.3776 88.5664 27.8268 88.4492 28.3086C88.332 28.7773 88.2734 29.2396 88.2734 29.6953C88.2734 29.8385 88.2865 29.9622 88.3125 30.0664C88.3516 30.1576 88.4557 30.2031 88.625 30.2031C88.7422 30.2031 88.8268 30.1836 88.8789 30.1445C88.944 30.0924 88.9961 30.0339 89.0352 29.9688C89.0742 29.8906 89.1068 29.819 89.1328 29.7539C89.1589 29.6888 89.1914 29.6367 89.2305 29.5977C89.3997 29.4414 89.5951 29.2786 89.8164 29.1094C90.0378 28.9401 90.2591 28.7643 90.4805 28.582C90.7148 28.3867 90.9362 28.1914 91.1445 27.9961C91.3659 27.8008 91.5547 27.6055 91.7109 27.4102C91.75 27.3451 91.7891 27.2409 91.8281 27.0977C91.8672 26.9414 91.9258 26.7982 92.0039 26.668C92.1992 26.3294 92.349 25.8932 92.4531 25.3594C92.5703 24.8255 92.6289 24.2396 92.6289 23.6016C92.6289 23.5365 92.6224 23.4648 92.6094 23.3867C92.6094 23.3086 92.6029 23.237 92.5898 23.1719Z" fill="black"/>
</svg>
